<svg width="100" height="24" viewBox="0 0 100 24" fill="none" xmlns="http://www.w3.org/2000/svg">
<path fill-rule="evenodd" clip-rule="evenodd" d="M20.1022 0.139692L3.77345 6.51125C1.06299 7.56896 -0.0860776 10.4202 1.32528 12.7015C3.24287 15.8009 6.99614 17.9065 11.3125 17.9065C17.5782 17.9065 22.6577 13.4693 22.6577 7.99636V1.58749C22.6577 0.672865 21.7992 0 20.8428 0C20.5982 0 20.3469 0.044097 20.1019 0.139692H20.1022Z" fill="#000A4A"/>
<path d="M0 7.99665C0 13.4699 5.0792 17.9071 11.3452 17.9071C15.6616 17.9071 19.4148 15.8015 21.3324 12.7021C22.7438 10.4208 21.5951 7.56956 18.8843 6.51185L2.55549 0.140293C1.35488 -0.328123 0 0.439412 0 1.58809V7.99696L0 7.99665Z" fill="#00C6FB"/>
<path d="M27.8918 17.2664V2.19327C27.8918 1.71745 28.0924 1.2919 28.4937 0.966263C28.8662 0.615645 29.3537 0.440491 29.898 0.440491H41.8794V3.32006H31.8184V6.95051H39.2999V8.07729C39.2999 8.55311 39.0991 8.97866 38.7266 9.32928C38.3252 9.65492 37.8381 9.83007 37.2934 9.83007H31.8188V17.2664H27.8918Z" fill="#000A4A"/>
<path d="M55.5428 4.24609V11.8829C55.5428 14.2114 54.8547 15.7138 53.479 16.44C52.1033 17.1662 50.5839 17.5165 48.9502 17.5165C47.345 17.4413 45.8832 17.0657 44.5361 16.3398C43.2175 15.6136 42.5581 14.1365 42.5581 11.8829V4.24609H46.4851V12.5588C46.4851 13.335 46.7431 13.9107 47.2592 14.2863C47.7753 14.637 48.3769 14.8121 49.0649 14.8121C49.7243 14.8121 50.3259 14.637 50.8706 14.2863C51.4153 13.9107 51.673 13.3347 51.673 12.5588V5.92363C51.673 5.47279 51.8449 5.07253 52.2177 4.74689C52.5615 4.42125 53.0205 4.24609 53.5934 4.24609H55.5424H55.5428Z" fill="#000A4A"/>
<path d="M69.1435 17.2664H67.1945C66.6212 17.2664 66.1626 17.1162 65.8188 16.7906C65.446 16.4899 65.2741 16.0894 65.2741 15.6136V8.95336C65.2741 8.17719 65.016 7.60146 64.4717 7.25085C63.927 6.87525 63.3251 6.7001 62.666 6.7001C61.9779 6.7001 61.3761 6.87525 60.8603 7.25085C60.3442 7.60146 60.0861 8.17719 60.0861 8.95336V17.2661H56.1592V9.62931C56.1592 7.40102 56.8186 5.92362 58.1371 5.1974C59.4842 4.44621 60.9461 4.04564 62.5512 3.9704C64.185 3.9704 65.7044 4.34599 67.0801 5.09718C68.4558 5.84838 69.1438 7.35076 69.1438 9.62931V17.2661L69.1435 17.2664Z" fill="#000A4A"/>
<path d="M79.6203 0.390262H81.5121C82.0568 0.390262 82.4864 0.565417 82.8592 0.916034C83.232 1.24167 83.4325 1.64225 83.4325 2.0678V11.5823C83.4325 13.9108 82.6587 15.4634 81.1107 16.2895C79.5917 17.1157 77.9294 17.5162 76.1519 17.5162C75.1776 17.5162 74.2315 17.3661 73.2854 17.0907C72.3393 16.8153 71.5945 16.3645 71.0498 15.7385C69.9604 14.5368 69.416 12.8842 69.416 10.8061C69.416 8.75297 69.9607 7.10041 71.0498 5.8734C72.1678 4.59644 73.601 3.97045 75.3492 3.97045C76.2952 3.97045 77.0977 4.12062 77.8143 4.44626C78.5595 4.84684 79.1614 5.34763 79.62 5.97362V0.389954L79.6203 0.390262ZM73.2282 10.6562C73.2282 11.9582 73.5149 12.9598 74.0596 13.636C74.6329 14.312 75.4353 14.6626 76.4675 14.6626C77.4708 14.6626 78.2732 14.312 78.8179 13.636C79.3626 12.9598 79.6207 11.9585 79.6207 10.6562C79.6207 9.47949 79.334 8.55314 78.7607 7.87689C78.1588 7.22592 77.3564 6.90058 76.3528 6.90058C75.4071 6.90058 74.6329 7.2512 74.0596 7.92715C73.5149 8.57812 73.2282 9.47949 73.2282 10.6565V10.6562Z" fill="#000A4A"/>
<path d="M84.0918 17.2664V2.19327C84.0918 1.71745 84.2923 1.2919 84.6937 0.966263C85.0661 0.615645 85.5536 0.440491 86.098 0.440491H93.4358C95.5281 0.440491 97.0761 0.841064 98.0794 1.61754C99.1398 2.44398 99.6559 3.62072 99.6559 5.19803C99.6559 6.2246 99.3979 7.10099 98.8821 7.77694C98.4236 8.42791 97.7069 8.90372 96.7322 9.20408C97.5922 9.45447 98.1941 9.85505 98.5379 10.3808C98.8532 10.8566 99.054 11.6828 99.1398 12.8598L99.2546 14.863C99.2546 15.0634 99.2546 15.2885 99.2546 15.514C99.2546 15.7394 99.2831 15.9395 99.3121 16.14C99.4268 16.716 99.6559 17.0916 100 17.2667H95.6146C95.4427 16.9411 95.328 16.5908 95.2994 16.2402C95.2136 15.7144 95.1846 15.3638 95.1846 15.1637L95.1274 13.3609C95.0413 12.3846 94.8122 11.6834 94.4394 11.2578C94.038 10.8822 93.3218 10.7068 92.2609 10.7068H88.0759V17.267H84.0918V17.2664ZM88.0759 7.77694H92.7195C93.7228 7.77694 94.468 7.60178 94.9552 7.25117C95.4423 6.87557 95.6718 6.32482 95.6718 5.57363C95.6718 4.82244 95.4423 4.27169 94.9552 3.92107C94.4966 3.5205 93.8375 3.32006 92.9486 3.32006H88.0759V7.77694Z" fill="#000A4A"/>
<path fill-rule="evenodd" clip-rule="evenodd" d="M98.0332 22.1813C98.4127 22.3358 98.8046 22.4128 99.1357 22.3977C99.1378 22.3977 99.1396 22.3974 99.1417 22.3974L99.1654 20.3415C99.1664 20.2691 99.0732 20.2253 99.0044 20.2657L97.0247 21.4322C97.1849 21.699 97.5552 21.9867 98.0329 22.1813H98.0332Z" fill="#00C6FB"/>
<path fill-rule="evenodd" clip-rule="evenodd" d="M99.053 22.5944C98.7074 22.5944 98.316 22.5118 97.9386 22.3579C97.4179 22.146 97.0264 21.8432 96.8382 21.5416L95.8318 22.1349C95.7531 22.1812 95.7816 22.2879 95.8756 22.299L97.5658 22.5C97.6653 22.5121 97.7564 22.5549 97.8224 22.6206L98.9454 23.7425C99.0079 23.8048 99.1254 23.7668 99.1261 23.6839L99.1388 22.5926C99.1106 22.5941 99.0816 22.5944 99.0527 22.5944H99.053Z" fill="#00C6FB"/>
<path fill-rule="evenodd" clip-rule="evenodd" d="M99.0535 22.4391C98.7079 22.4391 98.3164 22.3564 97.939 22.2025C97.0512 21.8408 96.5379 21.2164 96.7705 20.7803C97.0032 20.3446 97.8811 20.2866 98.7689 20.6484C99.0595 20.7668 99.3225 20.9203 99.5304 21.0921C99.5752 21.1291 99.577 21.1911 99.5346 21.2303C99.4919 21.2694 99.4213 21.271 99.3765 21.234C99.1862 21.0761 98.9433 20.9351 98.6743 20.8254C97.9256 20.5204 97.1465 20.5376 96.9731 20.8627C96.7995 21.1877 97.2852 21.7199 98.0336 22.0249C98.4131 22.1794 98.8046 22.2565 99.1361 22.2414C99.4421 22.2275 99.6543 22.1372 99.7344 21.9876C99.8174 21.8316 99.7373 21.6536 99.655 21.5315C99.6236 21.485 99.6412 21.4251 99.6946 21.3977C99.7479 21.3703 99.8163 21.3857 99.8478 21.4322C100.003 21.6617 100.035 21.8883 99.9371 22.0699C99.8206 22.288 99.5403 22.4181 99.1477 22.4363C99.1163 22.4378 99.0849 22.4384 99.0531 22.4384L99.0535 22.4391Z" fill="#00C6FB"/>
<path d="M57.9868 20.3143C58.6826 20.3143 59.2531 20.6921 59.2531 21.4534C59.2531 22.2037 58.6826 22.587 57.9868 22.587C57.2596 22.587 56.7206 22.1214 56.7206 21.4479C56.7206 20.7744 57.2723 20.3143 57.9868 20.3143ZM56.4131 18.9726V22.8063H56.7139V22.2093C56.9709 22.62 57.4788 22.85 58.0055 22.85C58.8708 22.85 59.5542 22.3517 59.5542 21.4534C59.5542 20.5607 58.8644 20.0568 57.9995 20.0568C57.4665 20.0568 56.9652 20.2539 56.7142 20.6921V18.9726H56.4134H56.4131Z" fill="#000A4A"/>
<path d="M62.4881 20.1007L61.7108 21.6944L61.3532 22.4829L60.9896 21.6999L60.2687 20.1007H59.9365L61.1777 22.7734L60.6073 23.9344H60.9331L62.8203 20.1007H62.4881Z" fill="#000A4A"/>
<path d="M67.3347 20.3746C67.0085 20.1282 66.6262 20.024 66.1496 20.024C65.4789 20.024 64.8141 20.2815 64.8141 20.8948C64.8141 21.5301 65.535 21.7382 66.1118 21.7601C66.5319 21.7709 66.6385 21.8751 66.6385 22.001C66.6449 22.1434 66.438 22.2365 66.1747 22.231C65.8485 22.2254 65.4789 22.1653 65.0962 21.8915L64.7075 22.4502C65.2339 22.8336 65.7044 22.9103 66.1619 22.9103C67.1462 22.9103 67.5225 22.4391 67.5161 22.0013C67.5098 21.2565 66.7762 21.1471 66.1683 21.1304C65.8675 21.1249 65.7104 21.0428 65.7104 20.8948C65.7104 20.7635 65.8608 20.6703 66.1556 20.6703C66.4377 20.6703 66.6572 20.7252 66.8892 20.8674L67.3343 20.3746H67.3347Z" fill="#000A4A"/>
<path d="M69.5476 22.1544C69.0838 22.1544 68.789 21.8639 68.789 21.459C68.789 21.0702 69.0647 20.7637 69.5476 20.7637C69.955 20.7637 70.3815 20.9444 70.3815 21.459C70.3815 21.9136 69.9614 22.1544 69.5476 22.1544ZM71.3028 24V20.1062H70.4941L70.4376 20.4513C70.1492 20.1281 69.7983 20.0569 69.4093 20.0569C68.5002 20.0569 67.8796 20.6153 67.8796 21.459C67.8796 22.3351 68.513 22.8665 69.422 22.8665C69.7482 22.8665 70.1305 22.7678 70.3938 22.4831V24H71.3028Z" fill="#000A4A"/>
<path d="M72.0239 20.1007V21.5356C72.0239 22.5871 72.6195 22.8609 73.3156 22.8609C73.6916 22.8665 74.0428 22.7734 74.3185 22.4502L74.3499 22.806H75.1651V20.1007H74.2748V21.4973C74.2748 21.8479 73.9927 22.1656 73.5726 22.16C73.1402 22.16 72.9333 21.9463 72.9333 21.5303V20.101H72.0243L72.0239 20.1007Z" fill="#000A4A"/>
<path d="M78.2936 20.413C78.1306 20.1721 77.7669 20.0408 77.3783 20.0408C76.4629 20.0297 75.7544 20.5554 75.7544 21.4537C75.7544 22.3464 76.4251 22.8722 77.3532 22.8667C77.6543 22.8611 78.0995 22.7516 78.3064 22.4667L78.3565 22.8062H79.1716C79.1716 21.9079 79.1716 20.9989 79.1716 20.1009H78.3254L78.294 20.413H78.2936ZM77.4722 20.7361C78.0112 20.7361 78.2936 21.092 78.2936 21.4809C78.2936 21.8204 77.9802 22.1654 77.4722 22.1654C77.0207 22.1654 76.6571 21.9027 76.6571 21.4534C76.6571 21.0044 77.0207 20.7361 77.4722 20.7361Z" fill="#000A4A"/>
<path d="M79.936 20.1063V22.8061H80.8387V21.3987C80.8387 20.9935 81.1709 20.7745 81.5596 20.7745C81.7477 20.7745 81.9044 20.8183 82.0548 20.9114L82.4312 20.287C82.2116 20.1171 81.9673 20.0406 81.6725 20.0406C81.3276 20.0406 81.0519 20.1501 80.8451 20.402L80.7762 20.1063H79.936Z" fill="#000A4A"/>
<path d="M85.7166 21.7109C85.9111 20.6048 85.2213 20.0297 84.1682 20.0297C83.1586 20.0297 82.5256 20.6048 82.5256 21.4263C82.5256 22.2916 83.1402 22.8667 84.2625 22.8667C84.7263 22.8667 85.2594 22.7517 85.5916 22.4667L85.0836 21.9739C84.8644 22.1383 84.5258 22.1876 84.2812 22.1876C83.7735 22.1876 83.4851 21.9739 83.441 21.7112H85.7169L85.7166 21.7109ZM83.4407 21.1358C83.5282 20.8675 83.8043 20.7031 84.1679 20.7031C84.5438 20.7031 84.8887 20.8401 84.9078 21.1358H83.4407Z" fill="#000A4A"/>
<path d="M89.202 22.8063V21.3551C89.202 21.0483 89.4152 20.78 89.7725 20.78C90.1361 20.78 90.2427 21.0045 90.2427 21.344V22.8063H91.1517V21.3277C91.1517 20.3199 90.5625 20.0353 89.9165 20.0353C89.4587 20.0353 89.1642 20.1777 88.8882 20.5447C88.6877 20.1503 88.3241 20.0408 87.9855 20.0408C87.7222 20.0408 87.3649 20.1121 87.1704 20.4078L87.1076 20.1013H86.3179V22.8066H87.2205V21.3607C87.2205 21.0541 87.4211 20.7636 87.7787 20.7636C88.1486 20.7636 88.3117 20.9992 88.3117 21.3551V22.8063H89.202Z" fill="#000A4A"/>
<path d="M94.8882 21.7109C95.0827 20.6048 94.3929 20.0297 93.3399 20.0297C92.3302 20.0297 91.6973 20.6048 91.6973 21.4263C91.6973 22.2916 92.3119 22.8667 93.4341 22.8667C93.898 22.8667 94.431 22.7517 94.7632 22.4667L94.2552 21.9739C94.036 22.1383 93.6975 22.1876 93.4528 22.1876C92.9452 22.1876 92.6568 21.9739 92.6126 21.7112H94.8885L94.8882 21.7109ZM92.6123 21.1358C92.6998 20.8675 92.9759 20.7031 93.3395 20.7031C93.7155 20.7031 94.0604 20.8401 94.0794 21.1358H92.6123Z" fill="#000A4A"/>
</svg>
